<svg width="229" height="38" viewBox="0 0 229 38" fill="none" xmlns="http://www.w3.org/2000/svg">
<path d="M0.170455 37V10.8182H6.06818V15.267H6.375C6.92045 13.767 7.82386 12.5966 9.08523 11.7557C10.3466 10.9034 11.8523 10.4773 13.6023 10.4773C15.375 10.4773 16.8693 10.9091 18.0852 11.7727C19.3125 12.625 20.1761 13.7898 20.6761 15.267H20.9489C21.5284 13.8125 22.5057 12.6534 23.8807 11.7898C25.267 10.9148 26.9091 10.4773 28.8068 10.4773C31.2159 10.4773 33.1818 11.2386 34.7045 12.7614C36.2273 14.2841 36.9886 16.5057 36.9886 19.4261V37H30.8011V20.3807C30.8011 18.7557 30.3693 17.5682 29.5057 16.8182C28.642 16.0568 27.5852 15.6761 26.3352 15.6761C24.8466 15.6761 23.6818 16.142 22.8409 17.0739C22.0114 17.9943 21.5966 19.1932 21.5966 20.6705V37H15.5455V20.125C15.5455 18.7727 15.1364 17.6932 14.3182 16.8864C13.5114 16.0795 12.4545 15.6761 11.1477 15.6761C10.2614 15.6761 9.45455 15.9034 8.72727 16.358C8 16.8011 7.42045 17.4318 6.98864 18.25C6.55682 19.0568 6.34091 20 6.34091 21.0795V37H0.170455ZM51.7427 37.5284C50.0836 37.5284 48.5893 37.233 47.2597 36.642C45.9415 36.0398 44.8961 35.1534 44.1234 33.983C43.362 32.8125 42.9813 31.3693 42.9813 29.6534C42.9813 28.1761 43.254 26.9545 43.7995 25.9886C44.3449 25.0227 45.0893 24.25 46.0324 23.6705C46.9756 23.0909 48.0381 22.6534 49.2199 22.358C50.4131 22.0511 51.6461 21.8295 52.9188 21.6932C54.4529 21.5341 55.6972 21.392 56.6518 21.267C57.6063 21.1307 58.2995 20.9261 58.7313 20.6534C59.1745 20.3693 59.3961 19.9318 59.3961 19.3409V19.2386C59.3961 17.9545 59.0154 16.9602 58.254 16.2557C57.4927 15.5511 56.3961 15.1989 54.9643 15.1989C53.4529 15.1989 52.254 15.5284 51.3677 16.1875C50.4927 16.8466 49.9018 17.625 49.5949 18.5227L43.8336 17.7045C44.2881 16.1136 45.0381 14.7841 46.0836 13.7159C47.129 12.6364 48.4074 11.8295 49.9188 11.2955C51.4302 10.75 53.1006 10.4773 54.9302 10.4773C56.1915 10.4773 57.4472 10.625 58.6972 10.9205C59.9472 11.2159 61.0893 11.7045 62.1234 12.3864C63.1574 13.0568 63.987 13.9716 64.612 15.1307C65.2484 16.2898 65.5665 17.7386 65.5665 19.4773V37H59.6347V33.4034H59.4302C59.0552 34.1307 58.5268 34.8125 57.8449 35.4489C57.1745 36.0739 56.3279 36.5795 55.3052 36.9659C54.2938 37.3409 53.1063 37.5284 51.7427 37.5284ZM53.3449 32.9943C54.5836 32.9943 55.6574 32.75 56.5665 32.2614C57.4756 31.7614 58.1745 31.1023 58.6631 30.2841C59.1631 29.4659 59.4131 28.5739 59.4131 27.608V24.5227C59.2199 24.6818 58.8904 24.8295 58.4245 24.9659C57.9699 25.1023 57.4586 25.2216 56.8904 25.3239C56.3222 25.4261 55.7597 25.517 55.2029 25.5966C54.6461 25.6761 54.1631 25.7443 53.754 25.8011C52.8336 25.9261 52.0097 26.1307 51.2824 26.4148C50.5552 26.6989 49.9813 27.0966 49.5609 27.608C49.1404 28.108 48.9302 28.7557 48.9302 29.5511C48.9302 30.6875 49.3449 31.5455 50.1745 32.125C51.004 32.7045 52.0609 32.9943 53.3449 32.9943ZM72.7311 37V10.8182H78.714V15.1818H78.9868C79.464 13.6705 80.2822 12.5057 81.4413 11.6875C82.6118 10.858 83.947 10.4432 85.447 10.4432C85.7879 10.4432 86.1686 10.4602 86.589 10.4943C87.0209 10.517 87.3788 10.5568 87.6629 10.6136V16.2898C87.4015 16.1989 86.9868 16.1193 86.4186 16.0511C85.8618 15.9716 85.322 15.9318 84.7993 15.9318C83.6743 15.9318 82.6629 16.1761 81.7652 16.6648C80.8788 17.142 80.1799 17.8068 79.6686 18.6591C79.1572 19.5114 78.9015 20.4943 78.9015 21.608V37H72.7311ZM98.3473 28.7841L98.3303 21.3352H99.3189L108.728 10.8182H115.938L104.364 23.7045H103.086L98.3473 28.7841ZM92.7223 37V2.09091H98.8928V37H92.7223ZM109.154 37L100.631 25.0852L104.791 20.7386L116.535 37H109.154Z" fill="#A594FD"/>
<path d="M144.678 10.8182L135.354 37H128.536L119.212 10.8182H125.792L131.809 30.267H132.081L138.116 10.8182H144.678ZM149.908 37V10.8182H156.078V37H149.908ZM153.01 7.10227C152.033 7.10227 151.192 6.77841 150.488 6.13068C149.783 5.47159 149.431 4.68182 149.431 3.76136C149.431 2.82954 149.783 2.03977 150.488 1.39204C151.192 0.732953 152.033 0.403408 153.01 0.403408C153.999 0.403408 154.84 0.732953 155.533 1.39204C156.238 2.03977 156.59 2.82954 156.59 3.76136C156.59 4.68182 156.238 5.47159 155.533 6.13068C154.84 6.77841 153.999 7.10227 153.01 7.10227ZM174.974 37.5114C172.349 37.5114 170.082 36.9659 168.173 35.875C166.276 34.7727 164.815 33.2159 163.793 31.2045C162.77 29.1818 162.259 26.8011 162.259 24.0625C162.259 21.3693 162.77 19.0057 163.793 16.9716C164.827 14.9261 166.27 13.3352 168.122 12.1989C169.974 11.0511 172.151 10.4773 174.651 10.4773C176.264 10.4773 177.787 10.7386 179.219 11.2614C180.662 11.7727 181.935 12.5682 183.037 13.6477C184.151 14.7273 185.026 16.1023 185.662 17.7727C186.298 19.4318 186.617 21.4091 186.617 23.7045V25.5966H165.156V21.4375H180.702C180.69 20.2557 180.435 19.2045 179.935 18.2841C179.435 17.3523 178.736 16.6193 177.838 16.0852C176.952 15.5511 175.918 15.2841 174.736 15.2841C173.474 15.2841 172.367 15.5909 171.412 16.2045C170.457 16.8068 169.713 17.6023 169.179 18.5909C168.656 19.5682 168.389 20.642 168.378 21.8125V25.4432C168.378 26.9659 168.656 28.2727 169.213 29.3636C169.77 30.4432 170.548 31.2727 171.548 31.8523C172.548 32.4205 173.719 32.7045 175.06 32.7045C175.957 32.7045 176.77 32.5795 177.497 32.3295C178.224 32.0682 178.855 31.6875 179.389 31.1875C179.923 30.6875 180.327 30.0682 180.599 29.3295L186.361 29.9773C185.997 31.5 185.304 32.8295 184.281 33.9659C183.27 35.0909 181.974 35.9659 180.395 36.5909C178.815 37.2045 177.009 37.5114 174.974 37.5114ZM198.059 37L190.662 10.8182H196.952L201.554 29.2273H201.792L206.497 10.8182H212.719L217.423 29.125H217.679L222.213 10.8182H228.52L221.105 37H214.679L209.77 19.3068H209.412L204.503 37H198.059Z" fill="white"/>
</svg>
