<svg width="232" height="38" viewBox="0 0 232 38" fill="none" xmlns="http://www.w3.org/2000/svg">
<path d="M0.36 37V11.608H6.936L7.08 16.456L6.072 16.744C6.392 15.912 6.84 15.16 7.416 14.488C8.024 13.784 8.712 13.192 9.48 12.712C10.248 12.232 11.064 11.848 11.928 11.56C12.824 11.272 13.704 11.128 14.568 11.128C15.912 11.128 17.096 11.336 18.12 11.752C19.176 12.168 20.072 12.824 20.808 13.72C21.544 14.616 22.104 15.784 22.488 17.224L21.48 17.032L21.816 16.312C22.232 15.576 22.76 14.888 23.4 14.248C24.04 13.608 24.76 13.064 25.56 12.616C26.36 12.136 27.192 11.768 28.056 11.512C28.92 11.256 29.768 11.128 30.6 11.128C32.584 11.128 34.216 11.528 35.496 12.328C36.808 13.128 37.784 14.312 38.424 15.88C39.096 17.416 39.432 19.336 39.432 21.64V37H32.616V22.12C32.616 20.392 32.264 19.112 31.56 18.28C30.888 17.448 29.848 17.032 28.44 17.032C27.704 17.032 27.016 17.16 26.376 17.416C25.736 17.64 25.192 17.976 24.744 18.424C24.296 18.872 23.944 19.384 23.688 19.96C23.432 20.536 23.304 21.176 23.304 21.88V37H16.488V22.024C16.488 20.424 16.12 19.192 15.384 18.328C14.68 17.464 13.656 17.032 12.312 17.032C11.608 17.032 10.936 17.16 10.296 17.416C9.656 17.64 9.112 17.976 8.664 18.424C8.216 18.84 7.864 19.352 7.608 19.96C7.352 20.536 7.224 21.176 7.224 21.88V37H0.36ZM60.9476 37V21.112C60.9476 19.768 60.5316 18.744 59.6996 18.04C58.8996 17.304 57.8116 16.936 56.4356 16.936C55.1236 16.936 53.9556 17.192 52.9316 17.704C51.9076 18.216 50.9476 19.016 50.0516 20.104L45.8756 16.072C47.4116 14.472 49.1236 13.24 51.0116 12.376C52.9316 11.512 55.0116 11.08 57.2516 11.08C59.2996 11.08 61.0756 11.4 62.5796 12.04C64.1156 12.68 65.2996 13.64 66.1316 14.92C66.9636 16.2 67.3796 17.816 67.3796 19.768V37H60.9476ZM53.9876 37.48C52.3876 37.48 50.9316 37.16 49.6196 36.52C48.3396 35.88 47.3156 35 46.5476 33.88C45.8116 32.728 45.4436 31.384 45.4436 29.848C45.4436 28.536 45.6836 27.384 46.1636 26.392C46.6436 25.368 47.3476 24.536 48.2756 23.896C49.2356 23.224 50.4196 22.712 51.8276 22.36C53.2676 22.008 54.9316 21.832 56.8196 21.832H64.3076L63.8756 26.392H56.7236C55.9556 26.392 55.2676 26.456 54.6596 26.584C54.0836 26.712 53.5876 26.92 53.1716 27.208C52.7876 27.496 52.4836 27.832 52.2596 28.216C52.0676 28.6 51.9716 29.048 51.9716 29.56C51.9716 30.104 52.1156 30.584 52.4036 31C52.6916 31.416 53.0756 31.736 53.5556 31.96C54.0676 32.184 54.6436 32.296 55.2836 32.296C56.2116 32.296 57.0916 32.136 57.9236 31.816C58.7876 31.496 59.5556 31.048 60.2276 30.472C60.8996 29.896 61.4276 29.24 61.8116 28.504L63.1076 31.912C62.4356 33 61.6196 33.96 60.6596 34.792C59.6996 35.624 58.6596 36.28 57.5396 36.76C56.4196 37.24 55.2356 37.48 53.9876 37.48ZM74.4686 37V11.608H81.0446L81.2846 19.768L80.1326 18.04C80.5486 16.76 81.1726 15.592 82.0046 14.536C82.8686 13.48 83.8766 12.648 85.0286 12.04C86.2126 11.4 87.4446 11.08 88.7246 11.08C89.3006 11.08 89.8286 11.128 90.3086 11.224C90.8206 11.288 91.2526 11.4 91.6046 11.56L89.7806 19C89.4286 18.84 88.9646 18.696 88.3886 18.568C87.8446 18.408 87.2846 18.328 86.7086 18.328C85.9726 18.328 85.2686 18.472 84.5966 18.76C83.9566 19.016 83.3806 19.4 82.8686 19.912C82.3886 20.392 82.0046 20.968 81.7166 21.64C81.4606 22.312 81.3326 23.064 81.3326 23.896V37H74.4686ZM102.907 29.368L101.035 23.704L112.939 11.608H121.915L102.907 29.368ZM96.4755 37V1.48H103.291V37H96.4755ZM113.659 37L104.539 25.624L109.387 21.736L121.867 37H113.659Z" fill="#A594FD"/>
<path d="M134.896 37L124.24 11.8H129.568L137.248 30.664L136.336 31.096L144.544 11.8H149.632L138.448 37H134.896ZM155.931 37V11.8H160.875V37H155.931ZM158.331 6.232C157.275 6.232 156.459 5.96 155.883 5.416C155.307 4.872 155.019 4.104 155.019 3.112C155.019 2.184 155.307 1.432 155.883 0.855999C156.491 0.279999 157.307 -0.00800133 158.331 -0.00800133C159.387 -0.00800133 160.203 0.263999 160.779 0.808C161.355 1.352 161.643 2.12 161.643 3.112C161.643 4.04 161.339 4.792 160.731 5.368C160.155 5.944 159.355 6.232 158.331 6.232ZM181.195 37.48C178.603 37.48 176.299 36.936 174.283 35.848C172.299 34.728 170.731 33.208 169.579 31.288C168.459 29.368 167.899 27.16 167.899 24.664C167.899 22.68 168.219 20.872 168.859 19.24C169.499 17.608 170.379 16.2 171.499 15.016C172.651 13.8 174.011 12.872 175.579 12.232C177.179 11.56 178.907 11.224 180.763 11.224C182.395 11.224 183.915 11.544 185.323 12.184C186.731 12.792 187.947 13.64 188.971 14.728C190.027 15.816 190.827 17.112 191.371 18.616C191.947 20.088 192.219 21.704 192.187 23.464L192.139 25.576H171.547L170.443 21.64H187.867L187.147 22.456V21.304C187.051 20.248 186.699 19.304 186.091 18.472C185.483 17.64 184.715 16.984 183.787 16.504C182.859 16.024 181.851 15.784 180.763 15.784C179.035 15.784 177.579 16.12 176.395 16.792C175.211 17.432 174.315 18.392 173.707 19.672C173.099 20.92 172.795 22.472 172.795 24.328C172.795 26.088 173.163 27.624 173.899 28.936C174.635 30.216 175.675 31.208 177.019 31.912C178.363 32.616 179.915 32.968 181.675 32.968C182.923 32.968 184.075 32.76 185.131 32.344C186.219 31.928 187.387 31.176 188.635 30.088L191.131 33.592C190.363 34.36 189.419 35.032 188.299 35.608C187.211 36.184 186.043 36.648 184.795 37C183.579 37.32 182.379 37.48 181.195 37.48ZM204.243 37L195.651 11.8L200.643 11.752L206.787 30.616L205.683 30.52L212.355 15.784H215.331L222.051 30.568L220.755 30.664L226.947 11.8H231.939L223.443 37H220.035L213.027 20.968L214.131 21.112L207.603 37H204.243Z" fill="white"/>
</svg>
