<svg width="127" height="48" viewBox="0 0 127 48" fill="none" xmlns="http://www.w3.org/2000/svg">
<path d="M6.072 29.584H17.352V34H0.6V0.639997H6.072V29.584ZM38.6801 34.432C36.1841 34.432 33.9281 33.872 31.9121 32.752C29.8961 31.6 28.3121 30 27.1601 27.952C26.0081 25.872 25.4321 23.472 25.4321 20.752C25.4321 18.064 26.0241 15.68 27.2081 13.6C28.3921 11.52 30.0081 9.92 32.0561 8.8C34.1041 7.68 36.3921 7.12 38.9201 7.12C41.4481 7.12 43.7361 7.68 45.7841 8.8C47.8321 9.92 49.4481 11.52 50.6321 13.6C51.8161 15.68 52.4081 18.064 52.4081 20.752C52.4081 23.44 51.8001 25.824 50.5841 27.904C49.3681 29.984 47.7041 31.6 45.5921 32.752C43.5121 33.872 41.2081 34.432 38.6801 34.432ZM38.6801 29.68C40.0881 29.68 41.4001 29.344 42.6161 28.672C43.8641 28 44.8721 26.992 45.6401 25.648C46.4081 24.304 46.7921 22.672 46.7921 20.752C46.7921 18.832 46.4241 17.216 45.6881 15.904C44.9521 14.56 43.9761 13.552 42.7601 12.88C41.5441 12.208 40.2321 11.872 38.8241 11.872C37.4161 11.872 36.1041 12.208 34.8881 12.88C33.7041 13.552 32.7601 14.56 32.0561 15.904C31.3521 17.216 31.0001 18.832 31.0001 20.752C31.0001 23.6 31.7201 25.808 33.1601 27.376C34.6321 28.912 36.4721 29.68 38.6801 29.68ZM73.7535 7.12C75.8015 7.12 77.6095 7.536 79.1775 8.368C80.7775 9.168 82.0255 10.176 82.9215 11.392V7.552H88.4415V34.432C88.4415 36.864 87.9295 39.024 86.9055 40.912C85.8815 42.832 84.3935 44.336 82.4415 45.424C80.5215 46.512 78.2175 47.056 75.5295 47.056C71.9455 47.056 68.9695 46.208 66.6015 44.512C64.2335 42.848 62.8895 40.576 62.5695 37.696H67.9935C68.4095 39.072 69.2895 40.176 70.6335 41.008C72.0095 41.872 73.6415 42.304 75.5295 42.304C77.7375 42.304 79.5135 41.632 80.8575 40.288C82.2335 38.944 82.9215 36.992 82.9215 34.432V30.016C81.9935 31.264 80.7295 32.32 79.1295 33.184C77.5615 34.016 75.7695 34.432 73.7535 34.432C71.4495 34.432 69.3375 33.856 67.4175 32.704C65.5295 31.52 64.0255 29.888 62.9055 27.808C61.8175 25.696 61.2735 23.312 61.2735 20.656C61.2735 18 61.8175 15.648 62.9055 13.6C64.0255 11.552 65.5295 9.968 67.4175 8.848C69.3375 7.696 71.4495 7.12 73.7535 7.12ZM82.9215 20.752C82.9215 18.928 82.5375 17.344 81.7695 16C81.0335 14.656 80.0575 13.632 78.8415 12.928C77.6255 12.224 76.3135 11.872 74.9055 11.872C73.4975 11.872 72.1855 12.224 70.9695 12.928C69.7535 13.6 68.7615 14.608 67.9935 15.952C67.2575 17.264 66.8895 18.832 66.8895 20.656C66.8895 22.48 67.2575 24.08 67.9935 25.456C68.7615 26.832 69.7535 27.888 70.9695 28.624C72.2175 29.328 73.5295 29.68 74.9055 29.68C76.3135 29.68 77.6255 29.328 78.8415 28.624C80.0575 27.92 81.0335 26.896 81.7695 25.552C82.5375 24.176 82.9215 22.576 82.9215 20.752ZM112.381 34.432C109.885 34.432 107.629 33.872 105.613 32.752C103.597 31.6 102.013 30 100.861 27.952C99.7088 25.872 99.1328 23.472 99.1328 20.752C99.1328 18.064 99.7248 15.68 100.909 13.6C102.093 11.52 103.709 9.92 105.757 8.8C107.805 7.68 110.093 7.12 112.621 7.12C115.149 7.12 117.437 7.68 119.485 8.8C121.533 9.92 123.149 11.52 124.333 13.6C125.517 15.68 126.109 18.064 126.109 20.752C126.109 23.44 125.501 25.824 124.285 27.904C123.069 29.984 121.405 31.6 119.293 32.752C117.213 33.872 114.909 34.432 112.381 34.432ZM112.381 29.68C113.789 29.68 115.101 29.344 116.317 28.672C117.565 28 118.573 26.992 119.341 25.648C120.109 24.304 120.493 22.672 120.493 20.752C120.493 18.832 120.125 17.216 119.389 15.904C118.653 14.56 117.677 13.552 116.461 12.88C115.245 12.208 113.933 11.872 112.525 11.872C111.117 11.872 109.805 12.208 108.589 12.88C107.405 13.552 106.461 14.56 105.757 15.904C105.053 17.216 104.701 18.832 104.701 20.752C104.701 23.6 105.421 25.808 106.861 27.376C108.333 28.912 110.173 29.68 112.381 29.68Z" fill="white"/>
</svg>
